<mxfile host="app.diagrams.net" agent="Mozilla/5.0 (X11; Linux x86_64) AppleWebKit/537.36 (KHTML, like Gecko) Chrome/134.0.0.0 Safari/537.36" version="26.1.0">
  <diagram name="第 1 页" id="6VD3t6M0slvS44Uun_Hq">
    <mxGraphModel dx="2074" dy="1147" grid="1" gridSize="10" guides="1" tooltips="1" connect="1" arrows="1" fold="1" page="1" pageScale="1" pageWidth="827" pageHeight="1169" math="0" shadow="0">
      <root>
        <mxCell id="0" />
        <mxCell id="1" parent="0" />
        <mxCell id="lfOQ5uYqMAjYi69eCwG4-1" value="&lt;font style=&quot;font-size: 16px;&quot;&gt;&lt;b&gt;&lt;i&gt;state 2&lt;/i&gt;&lt;/b&gt;&lt;/font&gt;" style="ellipse;whiteSpace=wrap;html=1;aspect=fixed;" vertex="1" parent="1">
          <mxGeometry x="250" y="270" width="80" height="80" as="geometry" />
        </mxCell>
        <mxCell id="lfOQ5uYqMAjYi69eCwG4-2" value="&lt;font style=&quot;font-size: 16px;&quot;&gt;&lt;b&gt;&lt;i&gt;state 1&lt;/i&gt;&lt;/b&gt;&lt;/font&gt;" style="ellipse;whiteSpace=wrap;html=1;aspect=fixed;" vertex="1" parent="1">
          <mxGeometry x="480" y="270" width="80" height="80" as="geometry" />
        </mxCell>
        <mxCell id="lfOQ5uYqMAjYi69eCwG4-7" value="&lt;font style=&quot;font-size: 16px; color: rgb(255, 102, 102);&quot;&gt;&lt;b style=&quot;&quot;&gt;main/server thread&lt;/b&gt;&lt;/font&gt;&lt;div&gt;&lt;span style=&quot;font-size: 16px;&quot;&gt;将msg放入队列中&lt;/span&gt;&lt;/div&gt;" style="text;html=1;align=center;verticalAlign=middle;resizable=0;points=[];autosize=1;strokeColor=none;fillColor=none;" vertex="1" parent="1">
          <mxGeometry x="325" y="210" width="170" height="50" as="geometry" />
        </mxCell>
        <mxCell id="lfOQ5uYqMAjYi69eCwG4-9" value="&lt;font style=&quot;font-size: 16px; color: rgb(255, 102, 102);&quot;&gt;&lt;b&gt;client thread&lt;/b&gt;&lt;/font&gt;&lt;div&gt;&lt;span style=&quot;font-size: 16px;&quot;&gt;成功发送，已ack确认&lt;/span&gt;&lt;/div&gt;" style="text;html=1;align=center;verticalAlign=middle;resizable=0;points=[];autosize=1;strokeColor=none;fillColor=none;" vertex="1" parent="1">
          <mxGeometry x="320" y="360" width="180" height="50" as="geometry" />
        </mxCell>
        <mxCell id="lfOQ5uYqMAjYi69eCwG4-10" value="&lt;font style=&quot;font-size: 15px;&quot;&gt;state 1:已下发 未发送&lt;/font&gt;&lt;div&gt;&lt;span style=&quot;background-color: transparent; color: light-dark(rgb(0, 0, 0), rgb(255, 255, 255)); font-size: 15px;&quot;&gt;state 2:未下发 已发送&lt;/span&gt;&lt;/div&gt;" style="text;html=1;align=center;verticalAlign=middle;resizable=0;points=[];autosize=1;strokeColor=none;fillColor=none;" vertex="1" parent="1">
          <mxGeometry x="330" y="430" width="170" height="50" as="geometry" />
        </mxCell>
        <mxCell id="lfOQ5uYqMAjYi69eCwG4-11" value="" style="shape=partialRectangle;html=1;whiteSpace=wrap;connectable=0;strokeColor=inherit;overflow=hidden;fillColor=none;top=0;left=0;bottom=0;right=0;pointerEvents=1;fontSize=16;" vertex="1" parent="1">
          <mxGeometry x="191" y="566" width="66" height="40" as="geometry">
            <mxRectangle width="66" height="40" as="alternateBounds" />
          </mxGeometry>
        </mxCell>
        <mxCell id="lfOQ5uYqMAjYi69eCwG4-12" value="" style="shape=table;startSize=0;container=1;collapsible=0;childLayout=tableLayout;" vertex="1" parent="1">
          <mxGeometry x="154" y="546" width="480" height="40" as="geometry" />
        </mxCell>
        <mxCell id="lfOQ5uYqMAjYi69eCwG4-13" value="" style="shape=tableRow;horizontal=0;startSize=0;swimlaneHead=0;swimlaneBody=0;strokeColor=inherit;top=0;left=0;bottom=0;right=0;collapsible=0;dropTarget=0;fillColor=none;points=[[0,0.5],[1,0.5]];portConstraint=eastwest;" vertex="1" parent="lfOQ5uYqMAjYi69eCwG4-12">
          <mxGeometry width="480" height="40" as="geometry" />
        </mxCell>
        <mxCell id="lfOQ5uYqMAjYi69eCwG4-14" value="2" style="shape=partialRectangle;html=1;whiteSpace=wrap;connectable=0;strokeColor=#82b366;overflow=hidden;fillColor=#d5e8d4;top=0;left=0;bottom=0;right=0;pointerEvents=1;" vertex="1" parent="lfOQ5uYqMAjYi69eCwG4-13">
          <mxGeometry width="60" height="40" as="geometry">
            <mxRectangle width="60" height="40" as="alternateBounds" />
          </mxGeometry>
        </mxCell>
        <mxCell id="lfOQ5uYqMAjYi69eCwG4-15" value="2" style="shape=partialRectangle;html=1;whiteSpace=wrap;connectable=0;strokeColor=#82b366;overflow=hidden;fillColor=#d5e8d4;top=0;left=0;bottom=0;right=0;pointerEvents=1;" vertex="1" parent="lfOQ5uYqMAjYi69eCwG4-13">
          <mxGeometry x="60" width="60" height="40" as="geometry">
            <mxRectangle width="60" height="40" as="alternateBounds" />
          </mxGeometry>
        </mxCell>
        <mxCell id="lfOQ5uYqMAjYi69eCwG4-16" value="2" style="shape=partialRectangle;html=1;whiteSpace=wrap;connectable=0;strokeColor=#82b366;overflow=hidden;fillColor=#d5e8d4;top=0;left=0;bottom=0;right=0;pointerEvents=1;" vertex="1" parent="lfOQ5uYqMAjYi69eCwG4-13">
          <mxGeometry x="120" width="60" height="40" as="geometry">
            <mxRectangle width="60" height="40" as="alternateBounds" />
          </mxGeometry>
        </mxCell>
        <mxCell id="lfOQ5uYqMAjYi69eCwG4-17" value="2" style="shape=partialRectangle;html=1;whiteSpace=wrap;connectable=0;strokeColor=#82b366;overflow=hidden;fillColor=#d5e8d4;top=0;left=0;bottom=0;right=0;pointerEvents=1;" vertex="1" parent="lfOQ5uYqMAjYi69eCwG4-13">
          <mxGeometry x="180" width="60" height="40" as="geometry">
            <mxRectangle width="60" height="40" as="alternateBounds" />
          </mxGeometry>
        </mxCell>
        <mxCell id="lfOQ5uYqMAjYi69eCwG4-18" value="2" style="shape=partialRectangle;html=1;whiteSpace=wrap;connectable=0;strokeColor=#82b366;overflow=hidden;fillColor=#d5e8d4;top=0;left=0;bottom=0;right=0;pointerEvents=1;" vertex="1" parent="lfOQ5uYqMAjYi69eCwG4-13">
          <mxGeometry x="240" width="60" height="40" as="geometry">
            <mxRectangle width="60" height="40" as="alternateBounds" />
          </mxGeometry>
        </mxCell>
        <mxCell id="lfOQ5uYqMAjYi69eCwG4-19" value="1" style="shape=partialRectangle;html=1;whiteSpace=wrap;connectable=0;strokeColor=#6c8ebf;overflow=hidden;fillColor=#dae8fc;top=0;left=0;bottom=0;right=0;pointerEvents=1;" vertex="1" parent="lfOQ5uYqMAjYi69eCwG4-13">
          <mxGeometry x="300" width="60" height="40" as="geometry">
            <mxRectangle width="60" height="40" as="alternateBounds" />
          </mxGeometry>
        </mxCell>
        <mxCell id="lfOQ5uYqMAjYi69eCwG4-20" value="1" style="shape=partialRectangle;html=1;whiteSpace=wrap;connectable=0;strokeColor=#6c8ebf;overflow=hidden;fillColor=#dae8fc;top=0;left=0;bottom=0;right=0;pointerEvents=1;" vertex="1" parent="lfOQ5uYqMAjYi69eCwG4-13">
          <mxGeometry x="360" width="60" height="40" as="geometry">
            <mxRectangle width="60" height="40" as="alternateBounds" />
          </mxGeometry>
        </mxCell>
        <mxCell id="lfOQ5uYqMAjYi69eCwG4-21" value="1" style="shape=partialRectangle;html=1;whiteSpace=wrap;connectable=0;strokeColor=#6c8ebf;overflow=hidden;fillColor=#dae8fc;top=0;left=0;bottom=0;right=0;pointerEvents=1;" vertex="1" parent="lfOQ5uYqMAjYi69eCwG4-13">
          <mxGeometry x="420" width="60" height="40" as="geometry">
            <mxRectangle width="60" height="40" as="alternateBounds" />
          </mxGeometry>
        </mxCell>
        <mxCell id="lfOQ5uYqMAjYi69eCwG4-23" value="" style="endArrow=classic;html=1;rounded=0;" edge="1" parent="1">
          <mxGeometry width="50" height="50" relative="1" as="geometry">
            <mxPoint x="634" y="626" as="sourcePoint" />
            <mxPoint x="634" y="586" as="targetPoint" />
          </mxGeometry>
        </mxCell>
        <mxCell id="lfOQ5uYqMAjYi69eCwG4-24" value="&lt;font style=&quot;font-size: 14px;&quot;&gt;&lt;i&gt;tail point&lt;/i&gt;&lt;/font&gt;" style="text;html=1;align=center;verticalAlign=middle;resizable=0;points=[];autosize=1;strokeColor=none;fillColor=none;" vertex="1" parent="1">
          <mxGeometry x="594" y="624" width="80" height="30" as="geometry" />
        </mxCell>
        <mxCell id="lfOQ5uYqMAjYi69eCwG4-26" value="" style="endArrow=classic;html=1;rounded=0;" edge="1" parent="1">
          <mxGeometry width="50" height="50" relative="1" as="geometry">
            <mxPoint x="454" y="626" as="sourcePoint" />
            <mxPoint x="454" y="586" as="targetPoint" />
          </mxGeometry>
        </mxCell>
        <mxCell id="lfOQ5uYqMAjYi69eCwG4-27" value="&lt;font style=&quot;font-size: 14px;&quot;&gt;&lt;i&gt;head point&lt;/i&gt;&lt;/font&gt;" style="text;html=1;align=center;verticalAlign=middle;resizable=0;points=[];autosize=1;strokeColor=none;fillColor=none;" vertex="1" parent="1">
          <mxGeometry x="404" y="624" width="90" height="30" as="geometry" />
        </mxCell>
        <mxCell id="lfOQ5uYqMAjYi69eCwG4-28" value="&lt;font style=&quot;font-size: 14px;&quot;&gt;busy value=3&lt;/font&gt;" style="text;html=1;align=center;verticalAlign=middle;resizable=0;points=[];autosize=1;strokeColor=none;fillColor=none;" vertex="1" parent="1">
          <mxGeometry x="484" y="516" width="110" height="30" as="geometry" />
        </mxCell>
        <mxCell id="lfOQ5uYqMAjYi69eCwG4-30" value="&lt;font style=&quot;font-size: 14px;&quot;&gt;free value=5&lt;/font&gt;" style="text;html=1;align=center;verticalAlign=middle;resizable=0;points=[];autosize=1;strokeColor=none;fillColor=none;" vertex="1" parent="1">
          <mxGeometry x="254" y="516" width="100" height="30" as="geometry" />
        </mxCell>
        <mxCell id="lfOQ5uYqMAjYi69eCwG4-32" value="" style="endArrow=classic;html=1;rounded=0;curved=1;dashed=1;exitX=1;exitY=0;exitDx=0;exitDy=0;entryX=0;entryY=0;entryDx=0;entryDy=0;" edge="1" parent="1" source="lfOQ5uYqMAjYi69eCwG4-1" target="lfOQ5uYqMAjYi69eCwG4-2">
          <mxGeometry width="50" height="50" relative="1" as="geometry">
            <mxPoint x="590" y="440" as="sourcePoint" />
            <mxPoint x="640" y="390" as="targetPoint" />
            <Array as="points">
              <mxPoint x="400" y="250" />
            </Array>
          </mxGeometry>
        </mxCell>
        <mxCell id="lfOQ5uYqMAjYi69eCwG4-33" value="" style="endArrow=classic;html=1;rounded=0;curved=1;dashed=1;entryX=1;entryY=1;entryDx=0;entryDy=0;exitX=0;exitY=1;exitDx=0;exitDy=0;" edge="1" parent="1" source="lfOQ5uYqMAjYi69eCwG4-2" target="lfOQ5uYqMAjYi69eCwG4-1">
          <mxGeometry width="50" height="50" relative="1" as="geometry">
            <mxPoint x="470" y="380" as="sourcePoint" />
            <mxPoint x="502" y="292" as="targetPoint" />
            <Array as="points">
              <mxPoint x="410" y="370" />
            </Array>
          </mxGeometry>
        </mxCell>
      </root>
    </mxGraphModel>
  </diagram>
</mxfile>
